<svg xmlns="http://www.w3.org/2000/svg" width="512" height="512" viewBox="0 0 512 512">
  <defs>
    <linearGradient id="bg" x1="0%" y1="0%" x2="100%" y2="100%">
      <stop offset="0%" stop-color="#fbbf24"/>
      <stop offset="100%" stop-color="#d97706"/>
    </linearGradient>
  </defs>
  <rect width="512" height="512" rx="80" fill="url(#bg)"/>
  <g transform="translate(80, 100)">
    <path fill="#fff" d="M260.5 296.7c-4.4 5.6-13.4 2.5-13.4-4.6v-68.7c0-8.3-6.7-15-15-15H103.7c-6.1 0-9.7-6.9-6.1-11.9l49.6-69.5c7.1-10 0-23.8-12.2-23.8H43.4c-6.1 0-9.7-6.9-6.1-11.9L83.8 21c1.4-2 3.7-3.2 6.1-3.2h191.7c6.1 0 9.7 6.9 6.1 11.9l-49.6 69.5c-7.1 9.9 0 23.8 12.2 23.8h75.5c6.3 0 9.8 7.2 5.9 12.2L260.5 296.7z" transform="translate(50, 42) scale(1.8)"/>
  </g>
</svg>
